<svg xmlns="http://www.w3.org/2000/svg" width="256" height="256" fill="none" viewBox="0 0 256 256">
<!-- SVG created with Arrow, by QuiverAI (https://quiver.ai) -->
  <path d="m219.4 165.8c0-21.55-6.09-42.7-16.19-59.49-2.04-3.41-6.29-1.8-6.69 2.14-1.54 11.73-4.28 20.86-14.29 30.79-1.3 1.29-2.17 2.08-0.96 4.08 1.07 1.85 4.11 1.49 6.21 1.41 3.37-0.13 4.7 1.8 4.7 4.8v76.33c15.87-15.69 27.22-35.75 27.22-60.06z" fill="url(#paint0_linear_6134_26115)"/>
  <path d="m183.6 150.6h-21.89c-2.15 0-3.89 0.97-3.89 3.57v92.2c10.94-4.19 20.1-9.63 27.85-15.75v-76.3c0-2.04-0.85-3.72-2.07-3.72z" fill="url(#paint1_linear_6134_26115)"/>
  <path d="m148.8 176.9h-21.01c-2.06 0-2.9 1.26-2.9 2.98v72.1c10.37-0.36 19.37-2.07 26.57-3.99v-68.16c0-1.67-1.27-2.93-2.66-2.93z" fill="url(#paint2_linear_6134_26115)"/>
  <path d="m116.2 195.9c-0.69-0.73-1.51-0.66-1.84-0.66h-20.24c-2.11 0-2.79 1.59-2.79 3.03v49.68c9.02 2.79 17.47 4.02 27.17 4.02v-53.62c0-0.63-0.55-2.02-2.3-2.45z" fill="url(#paint3_linear_6134_26115)"/>
  <path d="m82.41 216.6h-20.89c-1.61 0-2.91 1.17-2.91 2.89v10.4c8.19 7.67 17.28 13.09 26.13 16.29v-26.69c0-1.64-0.9-2.89-2.33-2.89z" fill="url(#paint4_linear_6134_26115)"/>
  <path d="m171.6 4.7c-1.76-1.09-3.67-0.59-4.86 0.45-22.97 19.26-45.45 45.79-53.94 93.11-2.72-10.13-5.91-14.48-12.12-21.43-3.3-2.68-6.7-0.6-5.98 2.8 7.11 15.71 2.97 29.15-14.11 45.44-0.98-5.2-0.96-10.96-0.31-17.18 0.47-2.92-3.2-4.55-5.22-2.08-19 21.58-39.35 47.26-39.35 77.2 0 14.8 6.29 29.97 16.59 41.19v-10.57c0-3.25 1.91-4.06 4.55-4.02h25.35c-11.5-17.34-4.46-38.39 21.13-64.72-1.17 5.44-2.31 19 9.2 23.86 15.15 5.05 43.43-12.47 54.79-35.59 9.39-22.1-3.56-39.03-8.41-61.05-5.01-22.73 0.3-43.3 12.97-64.04 1.54-2.2 0.43-2.93-0.28-3.37z" fill="url(#paint5_linear_6134_26115)"/>
  <path d="m166.3 5.83c-14.59 12.24-34.96 35.89-42.37 73.87-3.09 15.13-3.55 37.15-24.66 55.28-11.88 9.28-19.63 9.14-23.24 8.03-9.82-3.1-10.35-15.14-2.36-30.09-13.74 15.26-30.5 37.84-25.93 69.99 0.79 5.76 1.74 9.02 1.74 9.02 4.76-20.73 23.46-30.79 37.96-42.32 20.2-14.5 33.51-32.46 36.2-61.5 3.3-29.03 13.97-51.05 42.66-82.28z" fill="url(#paint6_linear_6134_26115)"/>
  <path d="m73.64 112.9c-13.46 14.27-14.76 33.74-2.65 38.15-10.81 2.96-17.48 15.31-21.82 26.75-4.25-10.94-3.14-30.51 24.47-64.9z" fill="url(#paint7_linear_6134_26115)"/>
  <path d="m167.2 4.7c-16.79 12.71-31.4 40.29-28.27 73.41 1.19 13.03 5.97 27.04 3.11 41.98-4.56 22.19-21.12 35.72-31.54 39.31-4.07-3.64-6.72-7.92-6.72-14.96-1.08 3.24-3.28 14.68 5.28 22.44 12 7.77 38.91-5.09 54.81-28.78 11.93-19.92 5.03-35.31-0.86-53.39-9.91-27.78-5.91-49.51 8.39-75.96 1.78-2.82 0.8-5.11-4.2-4.05z" fill="url(#paint8_linear_6134_26115)"/>
  <defs>
    <linearGradient id="paint0_linear_6134_26115" x1="182.1" x2="227.7" y1="110.1" y2="199.8" gradientUnits="userSpaceOnUse">
      <stop stop-color="#E31B24" offset="0"/>
      <stop stop-color="#B01127" offset="1"/>
    </linearGradient>
    <linearGradient id="paint1_linear_6134_26115" x1="158.4" x2="201.6" y1="155.9" y2="231.4" gradientUnits="userSpaceOnUse">
      <stop stop-color="#E31B24" offset="0"/>
      <stop stop-color="#B01127" offset="1"/>
    </linearGradient>
    <linearGradient id="paint2_linear_6134_26115" x1="123.1" x2="161.2" y1="179.2" y2="248" gradientUnits="userSpaceOnUse">
      <stop stop-color="#E74C16" offset="0"/>
      <stop stop-color="#E04016" offset="1"/>
    </linearGradient>
    <linearGradient id="paint3_linear_6134_26115" x1="89.8" x2="123.1" y1="198.1" y2="249.8" gradientUnits="userSpaceOnUse">
      <stop stop-color="#F4831F" offset="0"/>
      <stop stop-color="#F0671A" offset="1"/>
    </linearGradient>
    <linearGradient id="paint4_linear_6134_26115" x1="56.65" x2="81.01" y1="217.8" y2="250.4" gradientUnits="userSpaceOnUse">
      <stop stop-color="#FCC827" offset="0"/>
      <stop stop-color="#FEA41C" offset="1"/>
    </linearGradient>
    <linearGradient id="paint5_linear_6134_26115" x1="105.8" x2="105.8" y1="4" y2="224.2" gradientUnits="userSpaceOnUse">
      <stop stop-color="#FDBA12" offset="0"/>
      <stop stop-color="#F66005" offset=".4844"/>
      <stop stop-color="#F25205" offset="1"/>
    </linearGradient>
    <linearGradient id="paint6_linear_6134_26115" x1="105.8" x2="105.8" y1="5.828" y2="191.9" gradientUnits="userSpaceOnUse">
      <stop stop-color="#FED430" offset="0"/>
      <stop stop-color="#FEA41C" offset=".5052"/>
      <stop stop-color="#FE9111" offset="1"/>
    </linearGradient>
    <linearGradient id="paint7_linear_6134_26115" x1="61.22" x2="61.22" y1="112.9" y2="177.8" gradientUnits="userSpaceOnUse">
      <stop stop-color="#FEA21C" offset="0"/>
      <stop stop-color="#FEA21C" stop-opacity=".25" offset="1"/>
    </linearGradient>
    <linearGradient id="paint8_linear_6134_26115" x1="138.6" x2="138.6" y1="4.441" y2="169.7" gradientUnits="userSpaceOnUse">
      <stop stop-color="#FEA41C" offset="0"/>
      <stop stop-color="#F76D05" offset=".4896"/>
      <stop stop-color="#E60000" offset=".9635"/>
    </linearGradient>
  </defs>
</svg>