<svg xmlns="http://www.w3.org/2000/svg" viewBox="0 0 126 128">
<!-- SVG created with Arrow, by QuiverAI (https://quiver.ai) -->
  <style type="text/css">.cls-0 {fill:#353638;}
.cls-1 {fill:#494A4C;}
.cls-2 {fill:none;stroke:#05060D;stroke-width:0.964;stroke-linecap:round;stroke-linejoin:round;stroke-miterlimit:10;}
.cls-3 {fill:#262729;}
.cls-4 {fill:#68696B;}
.cls-5 {fill:#28292B;}
.cls-6 {fill:#FCF8DE;}
.cls-7 {fill:#E3D9BC;}
.cls-8 {fill:#FFFFFF;}
.cls-9 {fill:#FFC31A;}
.cls-10 {fill:#FCA918;}
.cls-11 {fill:#FFE69F;}
.cls-12 {fill:#FCF9EA;}
.cls-13 {fill:#FCF7E5;}
.cls-14 {fill:none;stroke:#0C0B0F;stroke-width:0.7691;stroke-miterlimit:10;}
.cls-15 {fill:#B5442E;}
.cls-16 {fill:#943122;}
.cls-17 {fill:#E1765E;}
.cls-18 {fill:none;stroke:#0C0B0F;stroke-width:0.9498;stroke-miterlimit:10;}
.cls-19 {fill:#FCF2D2;}
.cls-20 {fill:none;stroke:#0C0B0F;stroke-width:0.822;stroke-miterlimit:10;}
.cls-21 {fill:#FFC31A;}
.cls-22 {fill:#FCA918;}
.cls-23 {fill:#FFD262;}</style>
  <path d="m119.2 51.5c-3.8-18.4-21.1-38.4-40.3-44.1-2.6-0.8-5.2-1.4-7.7-1.8-2.4-2-4.7-4.5-10.1-4.6-4.4-0.1-7.1 1.4-10.7 4.3-23.9 3.6-46.4 23.6-48.9 52.3-2.2 25.6 13.1 59.5 48.4 66.3 2.3 1.8 5 4.4 10 4.4 5 0.1 7.8-1.7 11.3-4.4 20-3 41.2-18.1 48-47.3 1.7-2.2 4.2-4.6 6.8-5.2v-14.5c-2.9-0.6-5.6-3-6.8-5.4z" fill="#353638" stroke="#05060D" stroke-linecap="round" stroke-linejoin="round" stroke-miterlimit="10" stroke-width=".964"/>
  <path class="cls-4" d="m50.9 6.3 0.7-0.3c2-1.7 4.3-3.9 8.3-4.1s6.4 0.9 7.6 1.5c-1.8-1.4-3.4-2.3-6.6-2.3-3.7-0.1-6.3 1.1-9.8 4-24.1 3.5-48 23.4-49.6 55.3 2.4-27.5 25.3-50.2 49.4-54.1z"/>
  <path class="cls-4" d="m122 55.7-0.4 0.7c1 0.9 3 1.8 4.4 2v-1.1c-1.3-0.1-3-0.9-4-1.6z"/>
  <path class="cls-4" d="m69.7 121.4-0.7 0.2c-2.4 2.6-5.9 4.5-10.6 3.6 2.5 1.2 7.3 1.1 11.3-3.1 20.2-2.2 48-18.2 48.6-56.1-2.2 33.3-24.6 51.8-48.6 55.4z"/>
  <path class="cls-1" d="m122 70.8-0.3 0.1c0.4-4.1 0.7-10.4-0.7-15.2 1.2 1 3.1 2 5 2.5v10.7c-1.9 0.6-3.1 1.4-4 1.9z"/>
  <path class="cls-2" d="m69.1 7.6c-2.2-2.6-4.5-4.4-8.4-4.3-3.5 0-5.9 1.4-8.3 4-21 3.3-47.4 20.6-48 55.9-0.3 24.7 15.7 52.1 45 57.3l3.1 0.4c2.3 2.4 4.9 4 8.1 4.1 3.3 0 6-1.1 8.4-4.1l3.1-0.6c19-3.4 45.1-19.2 45.4-56-0.1-26.7-22-52.8-48.4-56.7z"/>
  <path class="cls-5" d="m60.7 15.9c-23.6 0-48.5 20.7-48.5 48.4 0 24.3 17.5 48.9 47.6 48.7 27.6 0.3 49.1-22.2 49.1-47.5 0-20.3-15.5-47.4-48.2-49.6z"/>
  <path class="cls-1" d="m69.8 21.3c8.9 0.8 23.3 7.5 22.5 8.7-0.4 4.3 3.8 5.4 3 11.4-0.9 5.7-6.2 10-4.4 13.1 7.8 13.3-2.4 24-8.7 26.2-3.3 1.3-7.1 4.4-6.9 11.7l-0.4 5.2c-5.5 3-11.2 4.9-18.6 4.7-7.1-0.2-15.5-2.7-25.4-2.8 6.8 6.9 14.7 12.1 26 13.1 20.6 1.5 51.6-12.4 51.8-47.2 0.2-16.7-11.8-40.9-38.9-44.1z"/>
  <path class="cls-2" d="m60.9 16c-24.2 0-48.4 20.6-48.4 48.2 0 24.2 17.4 48.7 47.4 48.7 27 0 48.8-21.3 48.8-47.2 0-19.6-14.3-47.2-47.8-49.7z"/>
  <path class="cls-0" d="m17.1 66.6c0 14.8 7.9 30 20.9 39-12.4-6.7-25.5-21-25.5-41.6 0-20.4 15.1-38.3 31.9-44.3-12.8 5.9-27.3 20.3-27.3 46.9z"/>
  <path class="cls-6" d="m38.1 28c-4.2 2.1-7 1.1-10.2 3.1-4.3 2.8-2.9 7.1-6.4 11-3 3.4-6.4 4.9-5.9 11.3 0.4 3 1.8 4.5 1.3 8-0.8 5 1.1 10.5 6.5 12.1 2.1 0.6 4.3 0.4 6.7 1.1l8.9-1 28.6-11.2c0.3-5 2.1-5.4 3.1-8.5 1.7-4.8-1.1-7.8-2.1-9.8-1.2-2.4-0.6-5.1-3-8.5-2.7-3.2-5.2-2.7-8-3.4-5.2-0.8-7.5-5-11.2-6-3.2-0.7-6.2 0.8-8.3 1.8z"/>
  <path class="cls-7" d="m67.9 43.6c1.5 3 3.1 6.3-0.3 10.5-2.6 2.9-2.4 6.3-2 8.3l1.8-0.5c0.5-5 3.1-5.3 3.7-8.5 1.3-4.8-2.5-7.8-3.2-9.8z"/>
  <path class="cls-7" d="m17.4 65.9c0.3 3.6 2.6 7 6.6 7.7 2.4 0.5 4 0.3 6.1 1l0.9-0.7c-2.5-2-5.9-0.9-8.6-2.3-2.9-1.2-4.5-3.7-5-5.7z"/>
  <path class="cls-8" d="m39 29.4c4.9-2.7 8-2.7 11.1-0.4 3 2.1 4.5 4.4 8.9 4.4 3.6 0.1 5.4 1.1 6.6 2.2-2.7-2.1-5.1-1.5-7.5-2.1-4.4-0.8-6.6-4.8-10.1-5.9-3.8-1-6.5 0.3-9.9 1.8-4.1 2-6.7 1-9.5 2.7-4 2.5-3.1 6.1-6.1 10.4-2.4 3-5.5 4.1-6.6 8.1 1.6-3.5 5.7-5.6 7.5-8.2 3.2-4.5 2-9 7.2-10.9 2.3-0.6 5.3-0.6 8.4-2.1z"/>
  <path class="cls-14" d="m38 27.9c-4.3 2.2-6.9 1.3-10 3-4.1 2.5-3 7-6.1 10.6-3 3.5-6.4 5-6.3 11.4 0.5 3.2 2 5 1.4 8.6-0.8 5 1.1 10.4 6.7 12 2.2 0.5 3.9 0.2 6.4 1l8.9-0.9 28.6-11.9c0-5.2 2.9-5.7 3.4-9.3 1-4.8-2.4-6.9-3.4-10.3-0.7-2.6-0.4-5.5-3.6-7.9-3-2.2-4.8-1.5-8-2.3-4.6-1-6.5-5.3-10.5-5.8-2.9-0.4-5.3 0.9-7.5 1.8z"/>
  <path class="cls-7" d="m42.5 40c-5.9-0.4-11.3 4-11.5 10.7-0.4 5.8 3.5 12.9 11 13.2 6.9 0.2 12.5-4.9 12.5-12 0-6.4-4.9-11.7-12-11.9z"/>
  <path class="cls-9" d="m41.4 38.2c-5.5 0.2-11.4 4.4-12.2 10.9-0.3 6.8 4.7 13.6 12.2 13.4 6.8 0 12-5.1 12-11.5s-4.9-12.9-12-12.8z"/>
  <path class="cls-10" d="m50.5 42.5c1.5 4.1 0.4 8.6-1.5 11.1-3 4.1-9.8 8-17.9 2.3 1.9 3.8 5.3 6.6 10.3 6.6 6.5 0 12-4.6 12-11.5 0-3.1-1-6.4-2.9-8.5z"/>
  <path class="cls-11" d="m32.1 47c-0.1 1.1 1 2 2 0.1 1-2.1 3.3-4.2 6.3-4.7 2.5-0.3 2.1-2.3-0.4-2.4-2.9 0-7.4 2.9-7.9 7z"/>
  <path class="cls-11" d="m43 41.2c-0.1 0.9 1.6 1.3 1.6 0.4 0-0.7-1.5-1.2-1.6-0.4z"/>
  <path class="cls-11" d="m47.4 52.1c-0.7 1.3-2.4 2.9-4.8 3.6-1.6 0.7-0.6 1.8 0.9 1.2 2.1-0.4 5-2.5 5.1-4.9 0-1.1-1-0.5-1.2 0.1z"/>
  <path class="cls-14" d="m41.4 38.2c-5.9 0-11.4 4.7-12 10.9-0.4 6.3 4.2 13.4 12 13.4 6.5 0 12-4.8 12-11.6-0.2-5.9-4.5-12.7-12-12.7z"/>
  <path class="cls-13" d="m61.1 61.2c-6.6-0.6-9.1 2.4-14.5 5.9-5 3-8.5 2-11.5 3-5.6 1.6-5.2 5.5-6.6 8.1-1.9 3.3-4.9 5.2-4.9 10.4 0 3.4 1.9 7.3 5.9 9.3 2.6 1.2 5.2 1.7 7.2 3.1 3.2 2 5.3 5.1 7.3 6.5 2.7 1.7 6.4 1.9 9.6 0.7 6.9-2.3 8.8 0.2 13.4-1.5 3.7-1.3 6.9-4.2 7-10.1 0.1-4.7-0.3-7 3.6-12.2 1.9-2.5 3.4-5.5 3.4-9.3 0.1-6.4-4.4-12.7-11.6-13.2l-8.3-0.7z"/>
  <path class="cls-7" d="m77.4 66.4c2.8 4 2.7 9.5 0.2 13.2-3.4 5-5 5-4.9 14 0 3.8-2.1 10.5-8.6 11-3 0.1-5.2-0.9-9.6 0.5-3.6 1.1-7.5 3.3-12-1-6.4-6.7-9.6-5.7-13.5-7.7-2.4-1.3-4.4-3-5-4.9 0.7 2.6 2.5 5.1 5.4 6.5 2.6 1.1 5.5 1.6 7.3 2.9 3.2 2 5.2 5.1 7.3 6.5 2.9 2 6.5 2 9.6 1 6.9-2.5 8.8 0 13.5-1.5 3.5-1.3 6.9-4.3 7-10.2 0.1-4.7-0.2-7.1 3.5-12.1 2-2.7 3.5-5.4 3.5-9.2 0.1-3.4-1.2-6.8-3.7-9z"/>
  <path class="cls-8" d="m37.1 71.5c6.3-0.5 8.5-1.1 13.9-4.9 5.1-4 8-4.5 13-3.9 4.1 0.2 8.5-0.3 12.6 2.7-2.2-1.9-4.2-3.3-7.5-3.4l-8.1-0.8c-6.3-0.5-8.9 2.4-13.9 5.8-4.5 2.9-8.6 2.5-11 3-4.7 0.7-6 3-6.9 5.7 1.2-1.7 3.4-4 7.9-4.2z"/>
  <path class="cls-8" d="m31.1 76.4c1.3-3.8 4.4-4.7 7.9-4.9-2.9 0.1-6.6 0.4-8.4 3.1-0.7 1.5-1.2 3.4-1.5 3.9-1.6 2.9-5.1 5.1-5.4 10 0.8-5 5.7-6.6 7.4-12.1z"/>
  <path class="cls-20" d="m61.1 61.2c-6.5-0.6-9.1 2.3-14.1 5.5-5 3.4-8.9 2.5-11.9 3.4-5.5 1.5-5.2 5.5-6.5 8-1.9 3.3-4.9 5.3-5 10.4 0 3.5 2 7.4 5.9 9.4 2.6 1.2 5.2 1.7 7.2 3.1 3.3 2 5.3 5.1 7.3 6.4 2.6 1.7 6.1 2 9.6 0.7 6.9-2.4 8.5-0.1 13.4-1.5 3.5-1.2 6.9-4.1 7-10 0.1-4.7-0.1-7 3.6-12 2-2.6 3.5-5.5 3.4-9.7 0-6.3-4.4-12.4-11.6-12.9l-8.3-0.8z"/>
  <path class="cls-7" d="m55.5 72.7c-6.3-0.3-11.6 4.5-12.4 10.5-0.2 6.4 3.8 14.2 12.5 14.4 6.5 0.1 11.8-4.9 11.6-13.1 0.2-6-4.7-11.6-11.7-11.8z"/>
  <path class="cls-21" d="m54.5 72.4c-6 0-11.6 5.2-11.9 11 0 5.6 4 13 11.9 13 6.6 0 11.9-4.8 11.7-12.7-0.1-5.8-4.7-11.3-11.7-11.3z"/>
  <path class="cls-22" d="m63.1 76.1c1.8 4.4 1 9.3-2.2 13-3.8 3.9-12 6.3-16.9 0.3 1.6 3.8 5.2 7 10.5 7 5.7 0 11.6-3.9 11.7-11.9 0.2-3.3-1.1-6.4-3.1-8.4z"/>
  <path class="cls-23" d="m45.6 79.6c-0.2 1.8 1.3 2.3 2.1 0.4 1.3-2.4 3.7-3.9 6.4-4.1 2.3-0.3 2-2-0.1-1.9-3.3-0.1-7.4 2.1-8.4 5.6z"/>
  <path class="cls-23" d="m56.6 75.2c-0.2 0.7 1.5 1.2 1.5 0.3 0-0.6-1.4-1-1.5-0.3z"/>
  <path class="cls-23" d="m60.4 85.1c-0.8 1.6-2.5 3.4-4.8 4-1.4 0.5-0.5 1.9 1.5 1 2.5-0.7 4.9-3.4 4.6-5.2-0.3-0.9-1.1-0.3-1.3 0.2z"/>
  <path class="cls-14" d="m54.5 72.4c-6 0-11.4 5.1-11.9 10.7-0.2 5.5 3.8 13.3 11.9 13.3 6.4 0 11.9-4.4 11.7-12.7-0.1-5.6-4.8-11.3-11.7-11.3z"/>
  <path class="cls-3" d="m109.6 54.4c-1.4 0-3.1 0.7-4.6 0s-2.5-2.4-5.1-1.8c-1.2-1.9-2.5-5.5-6.8-8l-2.5 4-0.9 4.1 2.9 6.9 1.5 4.3 4.8 6 1.6 2.5c2.2 1.5 5.5 4.2 6.9 7 0.5-1.3 2-7.3 2-16 1.2-2.8 0.6-5.7 3.6-7.4 0.4-1.4-1.1-2.3-3.4-1.6z"/>
  <path class="cls-3" d="m109.5 85.5c-1-1.4-0.6-3.4-2.5-6.1l-2.8 2.6-4.1 5.5-1 6.1c3.1 1.4 4.9-1.9 6.3-2.6 1.7-0.6 3.3-0.1 4.8-1.3 1.3-1.3 0.2-3.1-0.7-4.2z"/>
  <path class="cls-3" d="m89.6 19.5c2 3.2 3.5 6.6 3.1 9.4l0.4-1c1-3.3-1.7-8-3.5-8.4z"/>
  <path class="cls-3" d="m89.5 103.9-4.1 3.2c-2.5 1.6-2.4 3.8-4.2 5.9-1.6 1-3.6 0-4.2-1.4l2-2.7 10-6.4 2.6-1.5c-0.1 0.9-0.9 2-2.1 2.9z"/>
  <path class="cls-3" d="m71.1 105.1-2 1c-4.5 3.3-8.9 1-13 2.6-4.1 1.3-7.6 2.9-14-1l5.4 1.4 7.9-1.4 5.7-0.7 5.1-0.1 3.9-2.3 1 0.5z"/>
  <path class="cls-3" d="m30.1 75.4c-4.2 0.1-8.2-0.4-11-4.3 4.6 3.3 7.3 2.3 11 3.5v0.8z"/>
  <path class="cls-3" d="m57 26.1c1.9 3.8 5.5 4.3 7.4 5.1l3.2 4.4c1.5 2.5 3.8 3.3 6.5 4.8l1.8 2.5-2-4.7-3.9-1.7-4.9-6.5-3.6-1.6-4.5-2.3z"/>
  <path class="cls-15" d="m60.5 16.1c-0.6 3.6-3.8 2.5-4.6 5.5-0.5 2.3 1 4.9 3.7 6 3.5 1.4 4.8 1.8 6.1 4 1.7 2.9 2.7 4.5 5.8 5.6 4.4 1.8 4.2 4.2 5.5 7.4l3.1-1.1 0.5-11.4-2.9-7c-3.6-2.4-5.6-1.5-8.6-6.1-2-4-7.6-7.9-8.6-2.9z"/>
  <path class="cls-16" d="m61.4 15c2-0.4 5.2 2.5 6.7 5.5 1.6 2.9 3.3 4.5 5.5 5.1 2.1 0.8 3.8 1.9 3.8 1.9l0.5-1.9c-3.3-2.5-5.3-1.5-7.9-5.2-2.3-4.3-6.6-7.9-8.6-5.4z"/>
  <path class="cls-17" d="m59.1 19.1c-1.1 0.5-2.7 0.8-2.7 3.4 0.1 2.1 2.7 4 4.7 4.4-1.6-1.4-4.5-5-1-6.4l-1-1.4z"/>
  <path class="cls-17" d="m63.9 27.9c2.8 1.5 3.5 4.8 5.5 6.7 2.2 1.9 6.6 2.5 8 8.3l0.5-1c-1.4-6-4.9-6-7.9-8.3-1.8-1.7-3.1-5.1-6.1-5.7z"/>
  <path class="cls-17" d="m60.1 18.4 3 3.6c1.5 1.6 4 2.6 6.3 5 3.3 3.9 5.2 4.5 8 6.5l0.5-1.5c-2.3-2.6-4.8-2.9-7.4-4.9-2.1-1.6-3.1-3.7-5.1-5l-4.8-4.5-0.5 0.8z"/>
  <path class="cls-18" d="m60.5 16.1c-0.6 3.6-3.4 2.5-4.4 5.3-0.7 2.2 0.6 5 3.5 6.2 3.5 1.4 4.6 1.5 6.1 4 1.7 2.9 2.7 4.5 5.8 5.6 4.4 1.7 4.1 4.2 5.5 7.4 3.1-0.7 3.5-3.1 3.9-5.6-1-5.5-3-6.6-3.8-10.4-0.6-3.7-4-4-5.7-5.5-2.9-2.2-2.9-5.1-5.8-7.6-3.1-2.4-4.6-2.1-5.1 0.6z"/>
  <path class="cls-15" d="m83 21.4c-1.8 1.2-3.6 0.2-5.1 2.7-1.4 2.4-0.9 6 0.1 8.4 2.9 5.9-0.4 9.6-1.5 15.4-1.1 6.7 4.4 11.6 5.6 16.6 1.1 4 0.3 7.9 5.4 11.9 3.5-1 6.7-6.8 6.2-13.9-1-5.9-5.6-8.9-3.6-15.1l2.3-5.3c3-7.7-2.3-10-1.9-16 0.4-4.5-2.8-10.2-7.5-4.7z"/>
  <path class="cls-16" d="m86.6 18.9c1.8 2.2 2.5 4.7 1.9 7.5-1 5 4 7.6 2.1 13.6-1.1 3.4-4 6.6-3 11.6 1 4.8 4.3 6.9 5 14.5l1.1-2.5c-1.1-7-5-10-3.7-16l2.4-5.5c2.7-6.7-2.3-9.4-2-14.6 1-5.1-1.8-9.1-3.8-8.6z"/>
  <path class="cls-17" d="m81.9 22.5c-1 2 2.2 0.6-1.9 2.5-1.6 1.1-1.3 3.9-0.4 6 2 5.1 3 7.5 0.4 13.1-3.3 8.3 0.4 12.4 3 18.5 1.6 4 1.2 8 5.4 11.5l0.7-0.4c-3.2-2.3-4-8.1-5.2-11.1-2.9-6-6.3-10.5-3.9-17 1.6-4.4 2.7-7.1 0.6-12.6-1.4-3.4-3-7.9 1.6-9.1l-0.3-1.4z"/>
  <path class="cls-17" d="m83.4 21.4c-0.8 8.1 4.5 11.2 3.7 18.1-0.4 4.6-4.9 9.5-2.5 14.9 2.5 5.2 3.9 11.1 5.4 14l0.6-0.9c-2-6.8-6.4-11.1-6.9-16.8-0.2-5.1 3.2-8.1 2-16.7-1.6-5.1-3.6-6.6-2.3-12.6z"/>
  <path class="cls-18" d="m83 21.4c-1.9 1.7-3.6 0.2-5.1 2.7-1.3 2.4-1 5.9 0.1 8.3 2.9 6 0.1 9.1-1.4 15.1-1.5 6.9 4.4 11.5 5.6 17.5 0.9 4 0.3 7.4 5.3 11.1 2.9-0.7 4.5-4.2 6.1-10.1-1-6.9-4.7-9.9-4.2-16l2.5-6.6c3.5-7.8-1.9-10.4-1.8-15.4 0.4-2.1 0.6-3.9-0.6-6.4-1.5-3.5-4-3.2-6.5-0.2z"/>
  <path class="cls-16" d="m89.7 48.1c2.7 0.9 3.8 5.6 5.9 7.4l1-0.5 2-0.6 1.1-2.4c-1.8-2.5-3.6-6.9-7.8-8.6l-2.2 4.7z"/>
  <path class="cls-17" d="m89.7 48.1c2.5 0.9 4.4 5.6 6.5 7.4l0.4-0.5c-2.2-1.5-3.2-6.1-6.5-7.5l-0.4 0.6z"/>
  <path class="cls-17" d="m91.5 43.9c4.4 1.7 5.9 6.5 7.6 8.6l0.6-0.6c-1.6-1.8-3.6-6.9-7.3-8.5l-0.9 0.5z"/>
  <path class="cls-18" d="m91.6 42.4c5.9 3.2 6.8 7.1 8.4 9.2l-1.4 3c-4.4 0.5-3.6 2.5-4.9 4.1-1.6 0.7-1-0.1-1.6-1.1-3.7-7-3.6-8.6-0.5-15.2z"/>
  <path class="cls-16" d="m95.6 83.9 0.1 3.6c0.4 3 3 5.4 5.4 4.4l3-2.4 4.8-1.5 0.1-2c-1.3-2.5-0.6-7.6-8.8-13.5l-4.6 11.4z"/>
  <path class="cls-15" d="m96.5 83.4 0.1 3.7c0.3 3 3.1 5.5 5.5 4.3 1.3-1.9 2.4-2.4 4.5-2.8 1.3-0.2 3.1-1 2.4-2.5-1.4-2.6-0.5-7.7-8.5-13.4l-4 10.7z"/>
  <path class="cls-17" d="m100.5 74.6c3 1.3 5.4 4.4 5.9 7.8 0.3 2.2 1.2 3.7 2.2 5.1l0.4-0.9c-1.6-2.5-0.9-8.2-8.5-13v1z"/>
  <path class="cls-17" d="m99.1 78.4c3.4 2.5 2.4 8.1 5 10.2l0.9-0.1c-1.8-2-1.1-6.9-4.9-10.9l-1 0.8z"/>
  <path class="cls-16" d="m96.6 83.9 0.1 3.2c0.3 2.5 2 4.6 4 4.9-1.7-1.5-4-3-3.1-8.5l-1 0.4z"/>
  <path class="cls-18" d="m95.6 84.1v3c0.4 3.9 3.5 6.4 6 4.5 1.4-1 1.8-2.2 3.5-2.6 1.6-0.3 3 0 3.9-0.9 1.5-1.5-0.1-2-0.8-5.5-0.7-4.5-3.6-7.5-8-10.1l-4.6 11.6z"/>
  <path class="cls-16" d="m79.2 111.1c-2.6 0.5-2.7-4.2-5.6-4.6l-2.6-0.4c-2.3-1-2.3-4 0.5-6.4l3.1-2.1c4.3-3 2.4-6.6 3.9-11.2 1.9-6 8-7.3 9.9-11.4 1.5-2.9 1-6.9 3.1-9.5l2.5-2.5c4.2-3.1 3.1-5.5 4.1-8.6 0.9-2.3 3.3-4.4 5.5-2.4l1.5 1.1 4.5 0.1c2.3 0.4 2 1.4 0.9 2.7-1.6 2.1 0 7.7-4.9 11.1-3.2 2.4-5.5 2.4-6 8.6-0.5 8.5-5.6 8-8.9 11.9-2.7 3.6-0.2 8.5-2.7 12.9l-5.4 5.2-1.2 3.9-2.2 1.6z"/>
  <path class="cls-15" d="m78.7 111.1c-2 0-2.2-4.1-5.2-4.6l-2.4-0.4c-2.2-1-2.2-4 0.5-6.4l3-2.1c4.3-3 2.3-6.6 3.8-11.2 2-5.8 8.1-7.3 10-11 1.6-2.8 1-6.8 3.2-9.9l2.5-2.4c4.1-3 3-5.5 4-8.5 0.9-2.2 3.3-4.5 5.5-2.5l1.5 1.3 4.3-0.3c2.2 0.5 2.1 1.3 1.1 2.5-1.6 2 0 7.5-4.9 11.3-3.2 2.5-5.5 2.5-6 8.6-0.5 8.1-5.5 8.1-8.9 12-2.7 3.6-0.2 8.5-2.7 12.5-2.9 3.5-5.4 4-6.6 7.5-0.8 3-1 3.4-2.7 3.6z"/>
  <path class="cls-17" d="m69.9 105 1.2 1c-0.1-5.4 5.3-6.6 7.3-10.4 1.6-3 0.2-7.1 3.1-10.6 2.5-2.9 7.7-5.5 9.9-12.6 1.1-6.5 4.2-7.3 6.5-10 1.8-2.4 1.2-6.9 2.7-8.4 0.9-1 2-1.4 2.9-1.4l-1-1.1c-2.4-0.1-4 2.1-4.3 4.1-0.3 2.5-0.3 5-3.1 6.8-5 3.2-5.1 6-5.6 9.7-1 6.9-8.4 7.9-10.9 13.4-1.9 4.6 0.4 8.5-3.5 12-3 2.2-7.2 4.5-5.2 7.5z"/>
  <path class="cls-17" d="m73.9 106.4c1.2-3.8 6.3-4.8 7.6-8.8 1.2-3.6 0.4-8.6 5.1-14 3.9-3.9 7-6.6 8.3-12.1 1.2-5.6 4.7-5.5 5.7-10 0.9-4.9-0.7-6.5 2.9-7.9l-1-1.2c-4 0.7-2.4 6.1-4.6 9.7-2.2 2.9-5.3 2.9-6.4 9.5-1.9 7.3-7 9.5-10 13-3.8 4.3-1.4 9-5 12.9-2.8 2.9-6.9 4.9-5.8 8.5l3.2 0.4z"/>
  <path class="cls-17" d="m75.9 107.5c2.2-6 6.7-6.4 7.5-12.5 0.7-6.6 2.7-8.5 6.6-11.6 2.7-1.8 5.9-6.8 6.9-10.9 1.2-5.9 5.5-5.9 7.2-13.1 0.5-2 2.4-6 2.4-6h-1.4s-2.7 2.2-3 6c-0.1 5.7-5.5 6.1-6.9 11.2-1.3 6-4.5 9.1-8.1 12.4-5.7 5.4-4.6 10.1-5.7 14.1-1.5 4.5-6.7 5.3-7.7 9l2.2 1.4z"/>
  <path class="cls-16" d="m105.1 66.1c3.6-2.7 2.5-7.1 3.8-10.1 0.6-1 2.2-2.4 1.6-2.6-1.6 1-2.8 3.2-2.9 5.7-0.1 2.6-1.2 5.4-3.5 7-5.2 3.5-5.5 5.4-6 10-0.6 7.5-7.6 7.9-9.6 12.4-2 4.4 1 9-4.1 13.1-5.4 4.5-4 6.5-5.7 9.5 2.8-0.2 1.9-3.5 3.9-5.5 2.3-2.5 6.3-3.7 6.8-8.1 0.5-4.1-1.4-8 3.7-12.1 4-2.9 6.8-4.5 7-9.9 0.4-6.1 2.3-7.1 5-9.4z"/>
  <path class="cls-18" d="m78.7 111.1c-2.2 0-2.3-4-5.1-4.6l-2.1-0.4c-2.4-0.5-3.5-4 0.1-6.7 3.8-2.8 5.9-3 6-8.3 0.3-7.5 2.4-8.7 7.5-12.7 4-3.4 4-5.9 4.6-9.8 0.9-5 5.3-6 6.8-8.2 1.6-2 0.4-5.9 2.6-8 3-2.9 4.9 0.1 5.9 0.7 1.6 0.9 4.1-0.6 5.9 0.3 0.7 0.5 0.7 1.2-0.2 2.2-1.8 2-0.3 7-4.1 10.8-3.1 2.7-6.5 2.2-7 9.1-0.5 8.5-5.5 8.1-8.6 11.5-3 3.6-1.1 7.5-2.1 11.6-1.3 4.5-6.5 5.4-7.3 8.9-0.5 2-1 3.6-2.9 3.6z"/>
</svg>