<svg xmlns="http://www.w3.org/2000/svg" viewBox="0 0 32 32" width="32" height="32">
  <defs>
    <linearGradient id="g" x1="0" y1="32" x2="32" y2="0">
      <stop offset="0%" stop-color="#c63d0f"/>
      <stop offset="55%" stop-color="#ff6a1a"/>
      <stop offset="100%" stop-color="#ffb547"/>
    </linearGradient>
  </defs>
  <rect width="32" height="32" rx="6" fill="#07060a"/>
  <rect x="3" y="10" width="26" height="12" rx="2.5" stroke="url(#g)" stroke-width="1.4" fill="none"/>
  <path d="M16 12 c-2 1.3 -2.7 2.8 -2.7 4.2 c0 1.55 1.2 2.8 2.7 2.8 c1.5 0 2.7 -1.2 2.7 -2.8 c0 -1.4 -0.7 -2.9 -2.7 -4.2 z" fill="url(#g)"/>
  <path d="M5 26 V28 M9.5 26 V28 M14 26 V28 M18.5 26 V28 M23 26 V28 M27.5 26 V28" stroke="url(#g)" stroke-width="1" stroke-linecap="round" opacity="0.75"/>
  <path d="M16 4 C 17 6 17.5 7.2 17 9 M16 4 C 15 6 14.5 7.2 15 9" stroke="url(#g)" stroke-width="1" stroke-linecap="round" fill="none"/>
</svg>
