<svg xmlns="http://www.w3.org/2000/svg" viewBox="0 0 211 282">
  <path d="m22.14 248.9c-12.18-12.48-19.15-28.87-19.15-46.19 0.07-25.48 14.12-48.64 44.4-85.57 2.4-3 6.22-1.31 5.58 1.91-0.9 6.19-0.9 13.13-0.05 19.32 13.2-12.67 22.31-25.6 17.1-45.15l-1.48-5.6c-1.18-4.15 3.85-6.05 6.32-2.91 6.75 8.03 10.61 14.16 12.95 23.17 7.91-39.31 25.37-67.78 61.4-104 3.49-3.65 8.05-0.53 5.9 3.69-13.2 25.85-19.1 43.33-14.26 69.37 3.98 17.79 12.87 36.76 12.87 51.96 0 27.3-29.87 52.2-50.95 57.57-16.3 3.47-26.06-2.44-25.57-19.09 0.09-2.15 0.34-4.2 0.61-6.77-19.76 21.46-30.68 38.17-28.71 56.49 0.62 5.71 2.59 10.63 5.42 15.22h-28.35c-2.76 0-4.03 1.32-4.03 4.95v11.64z" fill="currentColor"/>
  <path d="m176.4 250.6v-86.39c0-3.07-1.54-4.45-4-4.32l-4.67 0.13c-2.93 0.09-4.32-3.9-1.94-6.08 9.27-9.04 15.1-18.69 16.9-35.55 0.57-3.65 4.93-4.09 6.59-0.8 11.58 22.01 20.57 46.27 19.32 70.51-1.36 21.46-10.73 42.53-32.2 62.5z" fill="currentColor"/>
  <path d="m166.2 166.4h-22.94c-2.72 0-4.07 1.28-4.07 4.24v102.4c11.07-4.35 21.57-10.34 30.38-17.34v-85.36c0-2.56-1.27-3.93-3.37-3.93z" fill="currentColor"/>
  <path d="m129.2 197.1h-23.33c-2.25 0-3.52 1.37-3.52 3.55v77.96c10.25-0.36 19.96-2.11 29.78-4.19v-74.37c0-1.75-1.27-2.95-2.93-2.95z" fill="currentColor"/>
  <path d="m91.06 216.1h-22.54c-2.25 0-3.9 1.54-3.9 4.13v54.7c9.46 2.49 18.28 3.82 29.35 4.09v-59.19c0-2.32-1.26-3.73-2.91-3.73z" fill="currentColor"/>
  <path d="m54.98 240.4h-22.38c-2.72 0-3.74 1.25-3.74 3.88v9.92c8.82 8.27 17.36 14.1 28.56 18.89l-0.34-0.08c0.43 0.2 1.03 0.4 0.83 0.36v-29.13c0-2.41-1.27-3.84-2.93-3.84z" fill="currentColor"/>
</svg>
