<svg xmlns="http://www.w3.org/2000/svg" width="250" height="250" viewBox="0 0 250 250">
    <path d="m136.6 110-1.13 5.56 12.24 6.29-11.11-11.85z" fill="#D14200"/>
    <path d="m127.7 120.8 26.69 10.3-25.31-3.59-1.38-6.71z" fill="#E79600"/>
    <path d="m162.8 102.1 5.1 4.06-1.82 15.92-3.28-19.98z" fill="#F4A916"/>
    <path d="m178 80.58 3.7 4.54-10.07 26.21 6.37-30.75z" fill="#D14200"/>
    <path d="m182.4 100.8 5.23 0.7-12.48 12.28 7.25-12.98z" fill="#E8492A"/>
    <path d="m231.2 127.9 2.33 4.53-10.86 7.21 5.7-11.74h2.83z" fill="#7A68D1"/>
    <path d="m247.4 156.2-2.36 7.31-17.33 6.57 19.69-13.88z" fill="#D14200"/>
    <path d="m233.4 175 2.1 2.84-3.02 2.56-8.87-3.04 9.79-2.36z" fill="#7A68D1"/>
    <path d="m127.3 137.1 3.39 7.62-4.81-2.08 1.42-5.54z" fill="#F4A916"/>
    <path d="m113.4 140.3 15.03 12.9-23.92-12.2 8.89-0.7z" fill="#7A68D1"/>
    <path d="m165.5 130.7 4.09 3.43-3.01 11.83-4.24-11.13 3.16-4.13z" fill="#D14200"/>
    <path d="m182.6 114.1 22.49-13.11 11.42 25.71-9.11 28.47 6.9-8.46 14.04 0.7 0.55 12.99-21.4 22.42 9.65 0.08 7.99 14.51-8.87 9.17h-17.1l-16.56 8.41-19.06-7.82-25.22 1.81-9.89-11.27 4.88-12.82 8.52-7.58-6.75-27.76 8.25-15.75 17.1 5.47 6.86 19.71 15.31-44.88z" fill="#7A68D1"/>
    <path d="m182.6 114.1 12.71 17.5 9.63-30.61-22.34 13.11z" fill="#D14200"/>
    <path d="m195.6 132 20.97-5.24-8.87 27.42-26.39 17.24 14.29-39.42z" fill="#C64800"/>
    <path d="m181.8 171.4 0.82-56.39 12.78 17.24-13.6 39.15z" fill="#8A78E0"/>
    <path d="m181.3 171.4-13.96-11.76 2.87-8.6 12.07-35.88-0.98 56.24z" fill="#7059C2"/>
    <path d="m143.2 134 15.81 5.64-9.25 14.81-14.42-5.24 7.86-15.21z" fill="#8A78E0"/>
    <path d="m135.1 149.6 15.11 5 11.04 27.14-17.02-5.31-9.13-26.83z" fill="#C64800"/>
    <path d="m159.4 139.7 8.19 19.93-6.4 22.16-11.34-27.43 9.55-14.66z" fill="#6A56BA"/>
    <path d="m181.3 171.4 24.86-16.74-7.85 28.2-17.01-11.46z" fill="#6752BA"/>
    <path d="m198.4 182.8 16.27-22.49 13.66-12.92 0.32 12.61-11.52 22.73-18.73 0.07z" fill="#6752BA"/>
    <path d="m214.7 160.3 0.39-13.62 13.27 0.7-13.66 12.92z" fill="#D14200"/>
    <path d="m198.3 182.8 8.44-22.8 8.37-13.23 3.85 12.89-20.66 23.14z" fill="#8A6FD3"/>
    <path d="m173.8 193.7 24.55-10.89-11.68 15.2-4.35 16.97-18.61-7.97 10.09-13.31z" fill="#D14F00"/>
    <path d="m198.3 182.8 9.88 11.61 16.92 2.98-8.95 9.25-17.1-0.7-0.75-23.14z" fill="#7059C2"/>
    <path d="m208.3 194.4 8.79-11.76 7.98 14.73-16.77-2.97z" fill="#9E88E5"/>
    <path d="m186.6 198 12.13 8.09-16.25 8.88 4.12-16.97z" fill="#7059C2"/>
    <path d="m173.8 193.7 24.55-11.26-7.4 10.38-3.85 5.79-13.3-4.91z" fill="#7A68D1"/>
    <path d="m161.2 181.8 20.09-10.4-7.54 22.12-10.24 13.69-2.31-25.41z" fill="#D15400"/>
    <path d="m132.9 185.4 12-7.71 4.96 13.88-21.46 6.42 4.5-12.59z" fill="#7A68D1"/>
    <path d="m138.3 208.9 11.64-17.46 13.73 14.99-25.37 2.47z" fill="#D15400"/>
    <path d="m149.9 191.5 13.66 14.68-2.39-24.37-11.27 9.69z" fill="#674799"/>
    <path d="m144.3 178-26.01-16.59 8.79-0.8 16.69 12.74 0.53 4.65z" fill="#7059C2"/>
    <path d="m118.6 162.1 7.35 4.37 0.15-5.42-7.5 1.05z" fill="#9081D9"/>
    <path d="m120.1 171.1 4.02-3.99 17.66 10.66-6.68 5.25-15-11.92z" fill="#D14F00"/>
    <path d="m115.2 181.1 9.25 0.5-6.32 2.84-2.93-3.34z" fill="#D14F00"/>
</svg>
